<mxfile host="app.diagrams.net" agent="Mozilla/5.0 (Windows NT 10.0; Win64; x64; rv:136.0) Gecko/20100101 Firefox/136.0" version="26.1.1">
  <diagram name="Page-1" id="CH_rz6mtZmloL91EuGOy">
    <mxGraphModel dx="1471" dy="1133" grid="1" gridSize="10" guides="1" tooltips="1" connect="1" arrows="1" fold="1" page="1" pageScale="1" pageWidth="850" pageHeight="1100" math="0" shadow="0">
      <root>
        <mxCell id="0" />
        <mxCell id="1" parent="0" />
        <mxCell id="OAEr4lpNUEm3LDWk9QwF-1" value="&lt;div&gt;STATE 0:&lt;/div&gt;&lt;div&gt;CREATE OBJECTS&lt;br&gt;&lt;/div&gt;" style="ellipse;whiteSpace=wrap;html=1;" parent="1" vertex="1">
          <mxGeometry x="195" y="120" width="120" height="80" as="geometry" />
        </mxCell>
        <mxCell id="OAEr4lpNUEm3LDWk9QwF-2" value="START" style="rounded=0;whiteSpace=wrap;html=1;" parent="1" vertex="1">
          <mxGeometry x="225" y="40" width="60" height="30" as="geometry" />
        </mxCell>
        <mxCell id="OAEr4lpNUEm3LDWk9QwF-3" value="&lt;div&gt;STATE 1:&lt;/div&gt;&lt;div&gt;STANDBY&lt;br&gt;&lt;/div&gt;" style="ellipse;whiteSpace=wrap;html=1;" parent="1" vertex="1">
          <mxGeometry x="195" y="250" width="120" height="80" as="geometry" />
        </mxCell>
        <mxCell id="OAEr4lpNUEm3LDWk9QwF-12" style="edgeStyle=orthogonalEdgeStyle;rounded=0;orthogonalLoop=1;jettySize=auto;html=1;exitX=1;exitY=0.5;exitDx=0;exitDy=0;entryX=1;entryY=0.5;entryDx=0;entryDy=0;curved=1;" parent="1" source="OAEr4lpNUEm3LDWk9QwF-4" target="OAEr4lpNUEm3LDWk9QwF-3" edge="1">
          <mxGeometry relative="1" as="geometry">
            <Array as="points">
              <mxPoint x="375" y="457" />
              <mxPoint x="375" y="290" />
            </Array>
          </mxGeometry>
        </mxCell>
        <mxCell id="OAEr4lpNUEm3LDWk9QwF-4" value="STATE 2: &lt;br&gt;RUN" style="ellipse;whiteSpace=wrap;html=1;" parent="1" vertex="1">
          <mxGeometry x="195" y="417" width="120" height="80" as="geometry" />
        </mxCell>
        <mxCell id="OAEr4lpNUEm3LDWk9QwF-9" value="ALWAYS" style="text;html=1;align=center;verticalAlign=middle;resizable=0;points=[];autosize=1;strokeColor=none;fillColor=none;" parent="1" vertex="1">
          <mxGeometry x="238" y="208" width="70" height="30" as="geometry" />
        </mxCell>
        <mxCell id="OAEr4lpNUEm3LDWk9QwF-11" value="SHARE_WAIT != 1" style="text;html=1;align=center;verticalAlign=middle;resizable=0;points=[];autosize=1;strokeColor=none;fillColor=none;" parent="1" vertex="1">
          <mxGeometry x="15" y="354" width="120" height="30" as="geometry" />
        </mxCell>
        <mxCell id="OAEr4lpNUEm3LDWk9QwF-14" value="" style="curved=1;endArrow=classic;html=1;rounded=0;entryX=0.5;entryY=0;entryDx=0;entryDy=0;exitX=0.5;exitY=1;exitDx=0;exitDy=0;" parent="1" source="OAEr4lpNUEm3LDWk9QwF-2" target="OAEr4lpNUEm3LDWk9QwF-1" edge="1">
          <mxGeometry width="50" height="50" relative="1" as="geometry">
            <mxPoint x="185" y="140" as="sourcePoint" />
            <mxPoint x="235" y="90" as="targetPoint" />
            <Array as="points">
              <mxPoint x="235" y="90" />
            </Array>
          </mxGeometry>
        </mxCell>
        <mxCell id="OAEr4lpNUEm3LDWk9QwF-17" value="" style="curved=1;endArrow=classic;html=1;rounded=0;entryX=0.5;entryY=0;entryDx=0;entryDy=0;exitX=0.5;exitY=1;exitDx=0;exitDy=0;" parent="1" source="OAEr4lpNUEm3LDWk9QwF-1" target="OAEr4lpNUEm3LDWk9QwF-3" edge="1">
          <mxGeometry width="50" height="50" relative="1" as="geometry">
            <mxPoint x="235" y="188" as="sourcePoint" />
            <mxPoint x="235" y="238" as="targetPoint" />
            <Array as="points">
              <mxPoint x="235" y="220" />
            </Array>
          </mxGeometry>
        </mxCell>
        <mxCell id="OAEr4lpNUEm3LDWk9QwF-18" value="ALWAYS" style="text;html=1;align=center;verticalAlign=middle;resizable=0;points=[];autosize=1;strokeColor=none;fillColor=none;" parent="1" vertex="1">
          <mxGeometry x="236" y="77" width="70" height="30" as="geometry" />
        </mxCell>
        <mxCell id="OAEr4lpNUEm3LDWk9QwF-19" value="" style="curved=1;endArrow=classic;html=1;rounded=0;entryX=0.5;entryY=0;entryDx=0;entryDy=0;exitX=0.5;exitY=1;exitDx=0;exitDy=0;" parent="1" source="OAEr4lpNUEm3LDWk9QwF-3" target="OAEr4lpNUEm3LDWk9QwF-4" edge="1">
          <mxGeometry width="50" height="50" relative="1" as="geometry">
            <mxPoint x="245" y="315" as="sourcePoint" />
            <mxPoint x="245" y="365" as="targetPoint" />
            <Array as="points">
              <mxPoint x="235" y="350" />
            </Array>
          </mxGeometry>
        </mxCell>
        <mxCell id="OAEr4lpNUEm3LDWk9QwF-20" value="SHARE_STOP == 1" style="text;html=1;align=center;verticalAlign=middle;resizable=0;points=[];autosize=1;strokeColor=none;fillColor=none;" parent="1" vertex="1">
          <mxGeometry x="373" y="358" width="130" height="30" as="geometry" />
        </mxCell>
        <mxCell id="OAEr4lpNUEm3LDWk9QwF-23" value="" style="curved=1;endArrow=classic;html=1;rounded=0;exitX=0;exitY=1;exitDx=0;exitDy=0;entryX=0;entryY=0;entryDx=0;entryDy=0;" parent="1" source="OAEr4lpNUEm3LDWk9QwF-3" target="OAEr4lpNUEm3LDWk9QwF-3" edge="1">
          <mxGeometry width="50" height="50" relative="1" as="geometry">
            <mxPoint x="185" y="320" as="sourcePoint" />
            <mxPoint x="235" y="270" as="targetPoint" />
            <Array as="points">
              <mxPoint x="185" y="340" />
              <mxPoint x="155" y="290" />
              <mxPoint x="185" y="240" />
            </Array>
          </mxGeometry>
        </mxCell>
        <mxCell id="OAEr4lpNUEm3LDWk9QwF-24" value="ELSE" style="text;html=1;align=center;verticalAlign=middle;resizable=0;points=[];autosize=1;strokeColor=none;fillColor=none;" parent="1" vertex="1">
          <mxGeometry x="118" y="275" width="50" height="30" as="geometry" />
        </mxCell>
        <mxCell id="OAEr4lpNUEm3LDWk9QwF-25" value="MOTOR.DISABLE()&lt;br&gt;&lt;div&gt;MOTOR_LEFT.SET_EFFORT(0)&lt;br&gt;&lt;/div&gt;&lt;div&gt;&lt;div&gt;SHARE_CUR_VELOCITY(VELOCITY)&lt;br&gt;&lt;/div&gt;&lt;/div&gt;" style="text;html=1;align=center;verticalAlign=middle;resizable=0;points=[];autosize=1;strokeColor=none;fillColor=none;" parent="1" vertex="1">
          <mxGeometry x="494" y="344" width="230" height="60" as="geometry" />
        </mxCell>
        <mxCell id="OAEr4lpNUEm3LDWk9QwF-26" value="" style="endArrow=none;html=1;rounded=0;" parent="1" edge="1">
          <mxGeometry width="50" height="50" relative="1" as="geometry">
            <mxPoint x="496" y="403" as="sourcePoint" />
            <mxPoint x="506" y="343" as="targetPoint" />
          </mxGeometry>
        </mxCell>
        <mxCell id="zEx5gcNuVbIrO3sxtCNw-2" value="&lt;div&gt;MOTOR.ENABLE()&lt;/div&gt;" style="text;html=1;align=center;verticalAlign=middle;resizable=0;points=[];autosize=1;strokeColor=none;fillColor=none;" parent="1" vertex="1">
          <mxGeometry x="124" y="354" width="130" height="30" as="geometry" />
        </mxCell>
        <mxCell id="zEx5gcNuVbIrO3sxtCNw-3" value="" style="endArrow=none;html=1;rounded=0;" parent="1" edge="1">
          <mxGeometry width="50" height="50" relative="1" as="geometry">
            <mxPoint x="127" y="384" as="sourcePoint" />
            <mxPoint x="137" y="355" as="targetPoint" />
          </mxGeometry>
        </mxCell>
        <mxCell id="08tEtAPSG5AYqq7ehJj--1" value="&lt;font style=&quot;font-size: 16px;&quot;&gt;&lt;b&gt;ME405_TERM_PROJECT_MOTOR_CONTROLLER_STATE_DIAGRAM&lt;/b&gt;&lt;/font&gt;" style="text;html=1;align=center;verticalAlign=middle;whiteSpace=wrap;rounded=0;" vertex="1" parent="1">
          <mxGeometry x="240" width="60" height="30" as="geometry" />
        </mxCell>
      </root>
    </mxGraphModel>
  </diagram>
</mxfile>
